<?xml version="1.0" encoding="UTF-8" standalone="no"?><!DOCTYPE svg PUBLIC "-//W3C//DTD SVG 1.1//EN" "http://www.w3.org/Graphics/SVG/1.1/DTD/svg11.dtd"><svg width="100%" height="100%" viewBox="0 0 1278 267" version="1.1" xmlns="http://www.w3.org/2000/svg" xmlns:xlink="http://www.w3.org/1999/xlink" xml:space="preserve" xmlns:serif="http://www.serif.com/" style="fill-rule:evenodd;clip-rule:evenodd;stroke-linejoin:round;stroke-miterlimit:2;"><g><g><path d="M262.636,165.605c-17.809,71.43 -90.154,114.9 -161.592,97.088c-71.408,-17.808 -114.879,-90.158 -97.062,-161.583c17.8,-71.438 90.145,-114.913 161.562,-97.105c71.433,17.809 114.9,90.167 97.092,161.6Z" style="fill:#f7931a;fill-rule:nonzero;"/><path d="M192.094,114.355c2.654,-17.741 -10.854,-27.279 -29.325,-33.641l5.992,-24.034l-14.63,-3.645l-5.833,23.4c-3.846,-0.959 -7.796,-1.863 -11.721,-2.759l5.875,-23.554l-14.62,-3.646l-5.996,24.025c-3.184,-0.725 -6.309,-1.441 -9.342,-2.196l0.017,-0.075l-20.175,-5.037l-3.892,15.625c-0,-0 10.854,2.487 10.625,2.642c5.925,1.479 6.996,5.4 6.817,8.508l-6.825,27.379c0.408,0.104 0.937,0.254 1.521,0.488c-0.488,-0.121 -1.009,-0.255 -1.546,-0.384l-9.567,38.354c-0.725,1.8 -2.562,4.5 -6.704,3.475c0.146,0.213 -10.633,-2.654 -10.633,-2.654l-7.263,16.746l19.038,4.746c3.541,0.887 7.012,1.817 10.429,2.692l-6.054,24.308l14.612,3.646l5.996,-24.05c3.992,1.083 7.867,2.083 11.658,3.025l-5.975,23.937l14.629,3.646l6.055,-24.262c24.945,4.72 43.704,2.816 51.6,-19.746c6.362,-18.167 -0.317,-28.646 -13.442,-35.479c9.558,-2.205 16.758,-8.492 18.679,-21.48Zm-33.425,46.871c-4.521,18.167 -35.108,8.346 -45.025,5.884l8.033,-32.205c9.917,2.475 41.717,7.375 36.992,26.321Zm4.525,-47.133c-4.125,16.525 -29.583,8.129 -37.842,6.071l7.284,-29.209c8.258,2.059 34.854,5.9 30.558,23.138Z" style="fill:#fff;fill-rule:nonzero;"/><path d="M390.719,80.689c10.813,-0 20.154,1.937 28.004,5.741c7.888,3.842 14.396,9.017 19.617,15.525c5.15,6.542 8.983,14.188 11.458,22.95c2.459,8.788 3.692,18.234 3.692,28.346c-0,15.534 -2.846,30.209 -8.592,44.042c-5.746,13.854 -13.541,25.871 -23.458,36.121c-9.908,10.237 -21.608,18.308 -35.1,24.271c-13.471,5.966 -28.117,8.95 -43.842,8.95c-2.033,-0 -5.608,-0.059 -10.658,-0.163c-5.05,-0.104 -10.854,-0.625 -17.354,-1.504c-6.542,-0.913 -13.459,-2.263 -20.763,-4.071c-7.3,-1.775 -14.233,-4.262 -20.762,-7.421l58.383,-245.316l52.292,-8.105l-20.904,87.055c4.475,-2.017 8.983,-3.58 13.483,-4.717c4.504,-1.121 9.337,-1.704 14.504,-1.704Zm-43.863,144.462c7.875,0 15.296,-1.937 22.267,-5.741c6.992,-3.809 13.025,-8.95 18.079,-15.355c5.055,-6.433 9.055,-13.679 11.971,-21.775c2.917,-8.095 4.392,-16.541 4.392,-25.329c-0,-10.796 -1.804,-19.216 -5.4,-25.304c-3.596,-6.062 -10.25,-9.112 -19.913,-9.112c-3.166,-0 -7.245,0.604 -12.304,1.683c-5.075,1.146 -9.616,3.525 -13.687,7.104l-22.259,92.45c1.342,0.238 2.53,0.463 3.542,0.675c0.992,0.229 2.087,0.392 3.179,0.504c1.154,0.129 2.475,0.196 4.071,0.196c1.596,0 3.592,0.004 6.062,0.004Z" style="fill:#4d4d4d;fill-rule:nonzero;"/><path d="M507.719,261.939l-49.946,-0l42.179,-177.488l50.288,0l-42.521,177.488Zm24.304,-199.113c-6.971,0 -13.291,-2.075 -18.9,-6.233c-5.654,-4.133 -8.454,-10.496 -8.454,-19.071c0,-4.717 0.958,-9.142 2.858,-13.317c1.93,-4.166 4.45,-7.754 7.609,-10.804c3.154,-3.025 6.808,-5.441 10.958,-7.262c4.175,-1.792 8.617,-2.688 13.35,-2.688c6.967,0 13.254,2.075 18.883,6.234c5.609,4.179 8.43,10.541 8.43,19.07c-0,4.734 -0.955,9.175 -2.871,13.342c-1.904,4.167 -4.425,7.754 -7.584,10.804c-3.129,3.029 -6.816,5.438 -10.958,7.242c-4.179,1.821 -8.604,2.683 -13.321,2.683Z" style="fill:#4d4d4d;fill-rule:nonzero;"/><path d="M594.011,40.23l52.312,-8.104l-12.846,52.317l56.025,-0l-10.116,41.158l-55.688,0l-14.833,62.084c-1.367,5.175 -2.142,10.008 -2.358,14.5c-0.246,4.512 0.325,8.387 1.675,11.65c1.341,3.27 3.754,5.791 7.254,7.575c3.483,1.812 8.471,2.725 15.012,2.725c5.388,-0 10.638,-0.513 15.713,-1.53c5.046,-1 10.158,-2.391 15.333,-4.212l3.725,38.483c-6.75,2.475 -14.058,4.604 -21.933,6.396c-7.888,1.817 -17.225,2.692 -28.017,2.692c-15.517,-0 -27.546,-2.304 -36.117,-6.892c-8.558,-4.621 -14.608,-10.933 -18.229,-18.925c-3.571,-7.962 -5.166,-17.142 -4.721,-27.483c0.463,-10.367 2.025,-21.263 4.721,-32.738l33.088,-139.696Z" style="fill:#4d4d4d;fill-rule:nonzero;"/><path d="M687.302,191.064c0,-15.288 2.475,-29.704 7.421,-43.2c4.938,-13.509 12.05,-25.321 21.279,-35.459c9.196,-10.087 20.4,-18.079 33.588,-23.945c13.125,-5.834 27.821,-8.775 44.017,-8.775c10.137,-0 19.191,0.958 27.158,2.879c8,1.937 15.237,4.441 21.783,7.583l-17.225,39.167c-4.5,-1.825 -9.171,-3.434 -14,-4.892c-4.833,-1.487 -10.733,-2.204 -17.712,-2.204c-16.671,-0 -29.85,5.746 -39.659,17.2c-9.77,11.462 -14.691,26.892 -14.691,46.246c-0,11.471 2.475,20.746 7.441,27.841c4.942,7.096 14.071,10.625 27.325,10.625c6.542,0 12.855,-0.683 18.9,-2.016c6.092,-1.35 11.471,-3.05 16.209,-5.059l3.729,40.15c-6.317,2.45 -13.283,4.663 -20.925,6.6c-7.659,1.871 -16.775,2.842 -27.346,2.842c-13.954,0 -25.767,-2.042 -35.429,-6.062c-9.667,-4.084 -17.654,-9.505 -23.946,-16.371c-6.325,-6.884 -10.867,-14.921 -13.675,-24.146c-2.808,-9.217 -4.242,-18.9 -4.242,-29.004Z" style="fill:#4d4d4d;fill-rule:nonzero;"/><path d="M909.177,266.647c-11.92,0 -22.275,-1.817 -31.058,-5.412c-8.758,-3.596 -16.012,-8.642 -21.75,-15.184c-5.746,-6.508 -10.046,-14.221 -12.992,-23.108c-2.945,-8.883 -4.362,-18.721 -4.362,-29.5c-0,-13.521 2.171,-27.038 6.558,-40.517c4.367,-13.508 10.846,-25.646 19.421,-36.433c8.508,-10.804 19.004,-19.638 31.362,-26.525c12.346,-6.842 26.546,-10.283 42.496,-10.283c11.704,-0 22.004,1.82 30.909,5.416c8.862,3.588 16.162,8.675 21.933,15.184c5.708,6.541 10.046,14.22 12.962,23.12c2.938,8.867 4.388,18.73 4.388,29.517c-0,13.479 -2.142,26.996 -6.392,40.517c-4.254,13.454 -10.566,25.621 -18.9,36.433c-8.316,10.788 -18.716,19.617 -31.208,26.475c-12.475,6.858 -26.942,10.3 -43.367,10.3Zm24.963,-144.425c-7.404,0 -13.95,2.15 -19.554,6.396c-5.625,4.296 -10.35,9.696 -14.159,16.208c-3.85,6.542 -6.704,13.675 -8.633,21.429c-1.912,7.771 -2.85,15.117 -2.85,22.096c0,11.263 1.817,20.034 5.387,26.346c3.621,6.279 10.125,9.438 19.58,9.438c7.429,-0 13.941,-2.134 19.579,-6.425c5.591,-4.263 10.321,-9.667 14.158,-16.192c3.825,-6.508 6.704,-13.663 8.634,-21.429c1.887,-7.746 2.85,-15.134 2.85,-22.1c-0,-11.234 -1.809,-20.025 -5.413,-26.329c-3.6,-6.28 -10.133,-9.438 -19.579,-9.438Z" style="fill:#4d4d4d;fill-rule:nonzero;"/><path d="M1063.47,261.939l-49.987,-0l42.179,-177.488l50.312,0l-42.504,177.488Zm24.267,-199.113c-6.967,0 -13.284,-2.075 -18.884,-6.233c-5.625,-4.133 -8.45,-10.496 -8.45,-19.071c0,-4.717 0.971,-9.142 2.875,-13.317c1.904,-4.166 4.442,-7.754 7.6,-10.804c3.138,-3.025 6.825,-5.441 10.967,-7.262c4.15,-1.792 8.592,-2.688 13.308,-2.688c6.984,0 13.292,2.075 18.909,6.234c5.62,4.179 8.458,10.541 8.458,19.07c-0,4.734 -1.008,9.175 -2.896,13.342c-1.887,4.167 -4.425,7.754 -7.571,10.804c-3.166,3.029 -6.808,5.438 -10.958,7.242c-4.183,1.821 -8.617,2.683 -13.358,2.683Z" style="fill:#4d4d4d;fill-rule:nonzero;"/><path d="M1141.97,92.522c3.792,-1.108 8.025,-2.442 12.629,-3.892c4.621,-1.45 9.783,-2.8 15.55,-4.016c5.704,-1.254 12.142,-2.271 19.221,-3.059c7.079,-0.804 15.146,-1.195 24.108,-1.195c26.342,-0 44.5,7.67 54.525,22.966c10.017,15.296 11.75,36.229 5.25,62.763l-22.975,95.833l-50.275,0l22.267,-93.817c1.358,-5.858 2.425,-11.52 3.212,-17.054c0.796,-5.483 0.75,-10.316 -0.179,-14.5c-0.887,-4.133 -2.979,-7.516 -6.225,-10.137c-3.296,-2.579 -8.275,-3.875 -15.029,-3.875c-6.512,-0 -13.137,0.7 -19.9,2.05l-32.737,137.329l-50.296,-0l40.854,-169.396Z" style="fill:#4d4d4d;fill-rule:nonzero;"/></g></g></svg>