<svg width="100%" height="100%" viewBox="0 0 1250 750" version="1.1" xmlns="http://www.w3.org/2000/svg" xmlns:xlink="http://www.w3.org/1999/xlink" xml:space="preserve" xmlns:serif="http://www.serif.com/" style="fill-rule:evenodd;clip-rule:evenodd;stroke-linejoin:round;stroke-miterlimit:2;"><g><g id="layer1"><g id="g10305"><path id="path2268" d="M1241.8,377.083c0.058,203.9 -165.192,369.225 -369.092,369.28c-203.904,0.05 -369.225,-165.192 -369.279,-369.092l0,-0.188c-0.054,-203.896 165.196,-369.229 369.088,-369.283c203.904,-0.054 369.229,165.196 369.283,369.096l-0,0.187Z" style="fill:#f90;fill-rule:nonzero;"/><path id="path1350" d="M375.004,7.896c-202.692,1.287 -366.808,166.192 -366.808,369.187c-0,203.788 165.396,369.184 369.187,369.184c95.646,-0 182.829,-36.45 248.434,-96.192c-0.005,-0 -0.013,-0.008 -0.029,-0.017l0.079,0c13.433,-12.241 25.962,-25.45 37.479,-39.533l-75.638,0c-10.1,-12.2 -19.279,-24.913 -27.525,-38.029l130.45,-0c7.934,-12.696 15.117,-25.879 21.492,-39.534l-173.479,0c-5.913,-12.675 -11.046,-25.637 -15.429,-38.787l204.354,-0c12.317,-36.8 19,-76.171 19,-117.096c-0,-27.133 -2.942,-53.587 -8.508,-79.058l-225.684,-0c2.796,-13.109 6.325,-26.059 10.534,-38.784l204.429,0c-4.571,-13.541 -9.879,-26.737 -15.917,-39.529l-172.8,0c6.233,-13.316 13.296,-26.271 21.183,-38.779l130.355,0c-8.675,-13.821 -18.275,-27.025 -28.655,-39.533l-72.679,-0c11.238,-13.225 23.608,-25.679 37.038,-37.292c-65.609,-59.75 -152.817,-96.208 -248.484,-96.208c-0.796,-0 -1.583,-0.004 -2.379,-0Z" style="fill:#c00;fill-rule:nonzero;"/><path id="use9412" d="M1204.76,570.083c2.008,0 3.962,0.521 5.87,1.546c1.917,1.025 3.392,2.504 4.459,4.425c1.066,1.9 1.6,3.904 1.6,5.979c-0,2.05 -0.529,4.034 -1.579,5.934c-1.046,1.896 -2.521,3.375 -4.421,4.429c-1.879,1.037 -3.867,1.562 -5.934,1.562c-2.066,0 -4.05,-0.525 -5.941,-1.562c-1.896,-1.058 -3.363,-2.529 -4.429,-4.429c-1.05,-1.9 -1.571,-3.884 -1.571,-5.934c-0,-2.075 0.529,-4.079 1.6,-5.979c1.075,-1.921 2.558,-3.387 4.462,-4.425c1.925,-1.025 3.879,-1.546 5.884,-1.546m-0,1.98c-1.671,-0 -3.305,0.433 -4.9,1.295c-1.584,0.863 -2.821,2.084 -3.713,3.7c-0.904,1.592 -1.354,3.242 -1.354,4.975c-0,1.717 0.442,3.375 1.312,4.95c0.892,1.571 2.125,2.804 3.7,3.688c1.588,0.879 3.234,1.312 4.95,1.312c1.725,0 3.375,-0.433 4.955,-1.312c1.575,-0.884 2.804,-2.117 3.683,-3.688c0.871,-1.575 1.304,-3.229 1.304,-4.95c0,-1.733 -0.442,-3.387 -1.337,-4.975c-0.888,-1.616 -2.13,-2.837 -3.725,-3.7c-1.58,-0.866 -3.205,-1.295 -4.875,-1.295m-5.234,16.562l0,-12.842l4.425,0c1.5,0 2.592,0.117 3.267,0.367c0.675,0.238 1.212,0.642 1.617,1.238c0.395,0.587 0.6,1.212 0.6,1.879c-0,0.941 -0.334,1.758 -1.009,2.45c-0.658,0.691 -1.554,1.087 -2.662,1.17c0.454,0.188 0.816,0.426 1.1,0.684c0.521,0.5 1.146,1.346 1.896,2.542l1.562,2.512l-2.525,0l-1.133,-2.021c-0.896,-1.591 -1.617,-2.583 -2.171,-2.991c-0.379,-0.288 -0.933,-0.438 -1.654,-0.438l-1.221,0l-0,5.463l-2.083,-0m2.066,-7.242l2.517,-0c1.2,-0 2.012,-0.184 2.45,-0.538c0.442,-0.366 0.662,-0.833 0.662,-1.425c0,-0.383 -0.1,-0.725 -0.312,-1.016c-0.217,-0.305 -0.508,-0.521 -0.888,-0.675c-0.37,-0.146 -1.062,-0.23 -2.07,-0.23l-2.35,0l-0,3.884" style="fill:#fcb340;fill-rule:nonzero;"/></g><g id="g16480"><g id="g13802"><path id="path13804" d="M499.896,483l4.916,-33.417c-2.687,-0 -6.637,1.162 -10.129,1.162c-13.683,0 -15.392,-7.312 -14.317,-12.654l13.484,-67.208l20.8,-0l4.287,-37.929l-19.604,-0l3.992,-22.984l-41.009,0c-0.866,0.867 -23.2,129.259 -23.2,144.9c0,23.146 12.992,33.446 31.317,33.284c14.342,-0.121 25.521,-4.092 29.463,-5.154Z" style="fill:#006;fill-rule:nonzero;"/><path id="path13806" d="M512.341,419.3c0,55.55 36.663,68.745 67.905,68.745c28.837,0 43.958,-6.683 43.958,-6.683l6.925,-37.917c-0,0 -24.367,9.909 -44.171,9.909c-42.212,-0 -34.812,-31.475 -34.812,-31.475l81.095,0.246c0,-0 5.163,-25.463 5.163,-35.842c-0,-25.904 -14.113,-57.704 -57.271,-57.704c-39.525,0.008 -68.792,42.596 -68.792,90.721Zm68.942,-55.521c22.183,-0 18.092,24.933 18.092,26.954l-43.642,-0c0,-2.583 4.121,-26.954 25.55,-26.954Z" style="fill:#006;fill-rule:nonzero;"/><path id="path13808" d="M830.191,482.987l7.038,-42.85c-0,0 -19.3,9.671 -32.529,9.671c-27.888,-0 -39.075,-21.292 -39.075,-44.171c-0,-46.404 23.991,-71.937 50.7,-71.937c20.033,-0 36.104,11.245 36.104,11.245l6.417,-41.637c-0,-0 -18.975,-13.704 -39.4,-13.783c-61.438,-0.242 -96.592,42.533 -96.592,116.479c-0,49.012 26.033,82.366 72.942,82.366c13.262,0 34.395,-5.383 34.395,-5.383Z" style="fill:#006;fill-rule:nonzero;"/><path id="path13810" d="M283.691,329.191c-26.954,0 -47.612,8.663 -47.612,8.663l-5.708,33.862c-0,0 17.054,-6.929 42.837,-6.929c14.638,0 25.346,1.646 25.346,13.542c-0,7.225 -1.308,9.891 -1.308,9.891c-0,0 -11.55,-0.962 -16.9,-0.962c-38.375,-0 -69.705,14.508 -69.705,58.25c0,34.471 23.43,42.375 37.95,42.375c27.738,-0 38.717,-17.513 39.35,-17.563l-0.32,14.534l34.612,-0l15.442,-108.25c-0,-45.938 -40.067,-47.413 -53.984,-47.413Zm5.992,87.9c0.754,6.609 -1.708,37.859 -25.383,37.859c-12.209,-0 -15.379,-9.334 -15.379,-14.842c-0,-10.767 5.845,-23.679 34.645,-23.679c6.709,-0 4.988,0.483 6.117,0.662Z" style="fill:#006;fill-rule:nonzero;"/><path id="path13812" d="M374.462,487.083c8.854,-0 59.467,2.254 59.467,-49.975c-0,-48.838 -46.85,-39.183 -46.85,-58.808c-0,-9.759 7.637,-12.834 21.6,-12.834c5.537,0 26.862,1.763 26.862,1.763l4.955,-34.709c-0,0.005 -13.8,-3.087 -36.267,-3.087c-29.079,-0 -58.596,11.608 -58.596,51.325c0,45.008 49.217,40.487 49.217,59.446c-0,12.654 -13.75,13.696 -24.35,13.696c-18.338,-0 -34.846,-6.296 -34.904,-5.992l-5.246,34.354c0.954,0.292 11.141,4.821 44.112,4.821Z" style="fill:#006;fill-rule:nonzero;"/><path id="path13814" d="M1154.43,297.704l-7.104,52.954c-0,-0 -14.804,-20.438 -37.967,-20.438c-43.579,0 -66.037,43.43 -66.037,93.317c-0,32.208 16.016,63.779 48.745,63.779c23.546,0 36.6,-16.421 36.6,-16.421l-1.729,14.021l38.242,0l30.029,-186.925l-40.779,-0.287Zm-16.883,102.921c-0,20.762 -10.284,48.5 -31.588,48.5c-14.15,-0 -20.783,-11.88 -20.783,-30.517c-0,-30.479 13.687,-50.583 30.966,-50.583c14.142,-0 21.405,9.708 21.405,32.6Z" style="fill:#006;fill-rule:nonzero;"/><path id="path13816" d="M70.854,485.07l23.929,-141.125l3.517,141.125l27.079,0l50.521,-141.125l-22.379,141.125l40.241,0l30.988,-187.175l-63.925,-0.487l-38.025,114.6l-1.042,-114.113l-58.583,0l-31.434,187.175l39.113,0Z" style="fill:#006;fill-rule:nonzero;"/><path id="path13818" d="M676.487,485.337c11.442,-65.062 15.517,-116.446 48.884,-105.804c4.791,-25.183 16.212,-47.083 21.429,-57.742c-0,0 -1.65,-2.454 -11.963,-2.454c-17.604,0 -41.108,35.725 -41.108,35.725l3.512,-22.087l-36.608,-0l-24.517,152.358l40.371,-0l0,0.004Z" style="fill:#006;fill-rule:nonzero;"/><g id="use14699"><path id="path13810_1_" d="M912.525,329.191c-26.966,0 -47.625,8.663 -47.625,8.663l-5.704,33.862c0,0 17.063,-6.929 42.833,-6.929c14.642,0 25.346,1.646 25.346,13.542c0,7.225 -1.304,9.891 -1.304,9.891c0,0 -11.546,-0.962 -16.896,-0.962c-38.379,-0 -69.704,14.508 -69.704,58.25c0,34.471 23.425,42.375 37.946,42.375c27.729,-0 38.717,-17.513 39.346,-17.563l-0.325,14.534l34.621,-0l15.437,-108.25c0.004,-45.938 -40.062,-47.413 -53.971,-47.413Zm5.984,87.9c0.75,6.609 -1.713,37.859 -25.384,37.859c-12.216,-0 -15.383,-9.334 -15.383,-14.842c-0,-10.767 5.842,-23.679 34.646,-23.679c6.712,-0 4.996,0.483 6.121,0.662Z" style="fill:#006;fill-rule:nonzero;"/></g><path id="use14701" d="M1006.34,485.337c6.284,-47.867 17.913,-115.067 48.88,-105.804c4.787,-25.183 0.17,-25.117 -10.138,-25.117c-17.617,0 -21.517,0.642 -21.517,0.642l3.517,-22.088l-36.604,0l-24.517,152.363l40.379,-0l0,0.004Z" style="fill:#006;fill-rule:nonzero;"/></g><g id="g10289"><path id="path4157" d="M510.142,471.079l4.921,-33.412c-2.688,-0 -6.642,1.15 -10.13,1.15c-13.683,-0 -15.191,-7.275 -14.32,-12.655l11.054,-68.175l20.796,0l5.02,-36.958l-19.608,0l3.992,-22.983l-39.309,-0c-0.866,0.866 -23.204,129.262 -23.204,144.896c0,23.145 12.996,33.454 31.321,33.287c14.35,-0.121 25.525,-4.091 29.467,-5.15Z" style="fill:#fff;fill-rule:nonzero;"/><path id="path4155" d="M522.596,407.375c-0,55.55 36.667,68.75 67.904,68.75c28.833,0 41.521,-6.446 41.521,-6.446l6.925,-37.912c-0,-0 -21.933,9.662 -41.742,9.662c-42.208,0 -34.816,-31.471 -34.816,-31.471l79.883,0c-0,0 5.158,-25.47 5.158,-35.85c0,-25.9 -12.891,-57.458 -56.05,-57.458c-39.525,0.008 -68.783,42.596 -68.783,90.725Zm68.933,-55.521c22.184,0 18.092,24.929 18.092,26.946l-43.642,0c0,-2.575 4.125,-26.946 25.55,-26.946Z" style="fill:#fff;fill-rule:nonzero;"/><path id="path4151" d="M840.446,471.063l7.033,-42.855c0,0 -19.287,9.671 -32.525,9.671c-27.883,0 -39.067,-21.291 -39.067,-44.166c0,-46.405 23.992,-71.934 50.7,-71.934c20.03,0 36.105,11.246 36.105,11.246l6.416,-41.637c0,-0 -23.837,-9.646 -44.271,-9.646c-45.379,-0 -89.525,39.366 -89.525,113.3c0,49.025 23.838,81.404 70.746,81.404c13.263,0.004 34.388,-5.383 34.388,-5.383Z" style="fill:#fff;fill-rule:nonzero;"/><path id="path4149" d="M293.946,317.263c-26.954,-0 -47.617,8.662 -47.617,8.662l-5.704,33.862c0,0 17.054,-6.929 42.833,-6.929c14.638,0 25.346,1.646 25.346,13.542c0,7.225 -1.312,9.892 -1.312,9.892c-0,-0 -11.546,-0.967 -16.892,-0.967c-33.996,-0 -69.708,14.508 -69.708,58.25c-0,34.467 23.429,42.375 37.95,42.375c27.733,-0 39.687,-17.996 40.325,-18.05l-1.296,15.021l34.612,-0l15.442,-108.254c0,-45.925 -40.063,-47.404 -53.979,-47.404Zm8.421,88.141c0.75,6.613 -4.146,37.608 -27.813,37.608c-12.208,0 -15.383,-9.325 -15.383,-14.841c-0,-10.759 5.846,-23.675 34.65,-23.675c6.7,0.008 7.416,0.725 8.546,0.908Z" style="fill:#fff;fill-rule:nonzero;"/><path id="path4145" d="M384.713,475.158c8.854,0 59.47,2.25 59.47,-49.979c0,-48.829 -46.854,-39.183 -46.854,-58.8c0,-9.767 7.638,-12.841 21.596,-12.841c5.542,-0 26.863,1.762 26.863,1.762l4.958,-34.708c-0,0.004 -13.8,-3.088 -36.267,-3.088c-29.079,0 -58.596,11.609 -58.596,51.325c0,45.004 49.217,40.488 49.217,59.446c-0,12.654 -13.75,13.683 -24.346,13.683c-18.337,0 -34.85,-6.291 -34.908,-5.991l-5.242,34.358c0.95,0.292 11.134,4.833 44.109,4.833Z" style="fill:#fff;fill-rule:nonzero;"/><path id="path4139" d="M1166.05,286.117l-8.479,52.612c-0,0 -14.796,-20.437 -37.959,-20.437c-36.016,-0 -66.037,43.425 -66.037,93.321c0,32.208 16.013,63.766 48.746,63.766c23.546,0 36.6,-16.416 36.6,-16.416l-1.729,14.02l38.233,0l30.029,-186.929l-39.404,0.063Zm-18.254,102.583c-0,20.762 -10.279,48.496 -31.592,48.496c-14.146,-0 -20.775,-11.875 -20.775,-30.513c0,-30.475 13.688,-50.583 30.959,-50.583c14.15,-0.004 21.408,9.717 21.408,32.6Z" style="fill:#fff;fill-rule:nonzero;"/><path id="path4133" d="M81.108,473.146l23.93,-141.125l3.512,141.125l27.083,-0l50.521,-141.125l-22.379,141.125l40.242,-0l30.991,-187.179l-62.229,-0l-38.754,114.846l-2.017,-114.846l-57.362,-0l-31.438,187.179l37.9,-0Z" style="fill:#fff;fill-rule:nonzero;"/><path id="path4131" d="M686.742,473.404c11.441,-65.066 13.562,-117.9 40.866,-108.229c4.78,-25.183 9.392,-34.925 14.609,-45.583c-0,-0 -2.446,-0.513 -7.579,-0.513c-17.605,0 -30.646,24.05 -30.646,24.05l3.504,-22.087l-36.6,-0l-24.521,152.362l40.367,0Z" style="fill:#fff;fill-rule:nonzero;"/><g id="use8523"><path id="path4149_1_" d="M931.147,317.263c-26.954,-0 -47.617,8.662 -47.617,8.662l-5.7,33.862c0,0 17.054,-6.929 42.833,-6.929c14.638,0 25.338,1.646 25.338,13.542c-0,7.225 -1.304,9.892 -1.304,9.892c-0,-0 -11.546,-0.967 -16.896,-0.967c-33.992,-0 -69.704,14.508 -69.704,58.25c-0,34.467 23.425,42.375 37.946,42.375c27.733,-0 39.687,-17.996 40.32,-18.05l-1.287,15.021l34.612,-0l15.438,-108.254c0.004,-45.925 -40.063,-47.404 -53.979,-47.404Zm8.433,88.141c0.75,6.613 -4.15,37.608 -27.825,37.608c-12.208,0 -15.375,-9.325 -15.375,-14.841c0,-10.759 5.846,-23.675 34.646,-23.675c6.7,0.008 7.412,0.725 8.554,0.908Z" style="fill:#fff;fill-rule:nonzero;"/></g><g id="use8525"><path id="path4131_1_" d="M1016.76,473.404c11.446,-65.066 13.567,-117.9 40.863,-108.229c4.787,-25.183 9.404,-34.925 14.616,-45.583c0,-0 -2.445,-0.513 -7.579,-0.513c-17.604,0 -30.646,24.05 -30.646,24.05l3.505,-22.087l-36.6,-0l-24.521,152.362l40.362,0Z" style="fill:#fff;fill-rule:nonzero;"/></g><path id="text9407" d="M1204.6,449.896c1.996,-0 3.963,0.512 5.859,1.554c1.912,1.008 3.4,2.492 4.466,4.413c1.071,1.908 1.596,3.895 1.596,5.975c0,2.054 -0.525,4.037 -1.579,5.933c-1.046,1.896 -2.517,3.383 -4.413,4.429c-1.891,1.042 -3.875,1.567 -5.933,1.567c-2.075,-0 -4.058,-0.525 -5.954,-1.567c-1.892,-1.054 -3.358,-2.533 -4.408,-4.429c-1.067,-1.896 -1.588,-3.879 -1.588,-5.933c0,-2.08 0.529,-4.067 1.6,-5.976c1.075,-1.92 2.567,-3.395 4.471,-4.412c1.921,-1.042 3.887,-1.554 5.883,-1.554m0,1.966c-1.671,0 -3.304,0.434 -4.9,1.305c-1.591,0.85 -2.829,2.079 -3.725,3.687c-0.891,1.588 -1.341,3.25 -1.341,4.975c-0,1.725 0.433,3.375 1.304,4.95c0.887,1.571 2.12,2.804 3.712,3.692c1.575,0.866 3.221,1.304 4.95,1.304c1.717,0 3.375,-0.438 4.95,-1.304c1.575,-0.888 2.808,-2.121 3.683,-3.692c0.88,-1.587 1.309,-3.225 1.309,-4.95c-0,-1.725 -0.446,-3.387 -1.338,-4.975c-0.887,-1.608 -2.125,-2.837 -3.725,-3.687c-1.583,-0.867 -3.204,-1.305 -4.879,-1.305m-5.229,16.567l-0,-12.846l4.421,0c1.504,0 2.604,0.121 3.271,0.367c0.675,0.229 1.204,0.642 1.616,1.237c0.404,0.592 0.609,1.213 0.609,1.88c-0,0.937 -0.342,1.758 -1.017,2.45c-0.658,0.691 -1.546,1.091 -2.654,1.166c0.441,0.192 0.808,0.421 1.091,0.679c0.513,0.509 1.146,1.359 1.896,2.546l1.571,2.517l-2.537,-0l-1.13,-2.021c-0.899,-1.596 -1.62,-2.587 -2.17,-2.992c-0.38,-0.295 -0.934,-0.441 -1.663,-0.441l-1.212,-0l-0,5.462l-2.092,-0.004m2.075,-7.229l2.517,0c1.204,0 2.016,-0.179 2.45,-0.538c0.437,-0.35 0.666,-0.829 0.666,-1.425c0,-0.379 -0.104,-0.72 -0.312,-1.008c-0.213,-0.308 -0.508,-0.529 -0.888,-0.683c-0.379,-0.146 -1.058,-0.221 -2.075,-0.221l-2.354,-0l0,3.875" style="fill:#fff;fill-rule:nonzero;"/></g></g></g></g></svg>