<svg width="100%" height="100%" viewBox="0 0 515 126" version="1.1" xmlns="http://www.w3.org/2000/svg" xmlns:xlink="http://www.w3.org/1999/xlink" xml:space="preserve" xmlns:serif="http://www.serif.com/" style="fill-rule:evenodd;clip-rule:evenodd;stroke-linejoin:round;stroke-miterlimit:2;"><g><path d="M192.546,28.121l-28.496,-0c-1.95,-0 -3.608,1.416 -3.913,3.342l-11.525,73.07c-0.229,1.442 0.888,2.742 2.35,2.742l13.605,0c1.95,0 3.608,-1.417 3.912,-3.346l3.108,-19.708c0.3,-1.929 1.963,-3.346 3.909,-3.346l9.021,-0c18.77,-0 29.604,-9.083 32.433,-27.083c1.275,-7.875 0.054,-14.063 -3.633,-18.396c-4.05,-4.759 -11.234,-7.275 -20.771,-7.275Zm3.287,26.687c-1.558,10.225 -9.371,10.225 -16.925,10.225l-4.3,0l3.017,-19.096c0.179,-1.154 1.179,-2.004 2.346,-2.004l1.971,0c5.145,0 10,0 12.508,2.934c1.496,1.75 1.954,4.35 1.383,7.941Z" style="fill:#253b80;fill-rule:nonzero;"/><path d="M277.725,54.479l-13.646,0c-1.162,0 -2.167,0.85 -2.346,2.004l-0.604,3.817l-0.954,-1.383c-2.954,-4.288 -9.542,-5.721 -16.117,-5.721c-15.079,-0 -27.958,11.421 -30.466,27.442c-1.305,7.991 0.55,15.633 5.083,20.962c4.158,4.9 10.108,6.942 17.187,6.942c12.15,-0 18.888,-7.813 18.888,-7.813l-0.608,3.792c-0.23,1.45 0.887,2.75 2.341,2.75l12.292,-0c1.954,-0 3.604,-1.417 3.912,-3.346l7.375,-46.704c0.234,-1.438 -0.879,-2.742 -2.337,-2.742Zm-19.021,26.559c-1.317,7.795 -7.504,13.029 -15.396,13.029c-3.962,-0 -7.129,-1.271 -9.162,-3.679c-2.017,-2.392 -2.784,-5.796 -2.142,-9.588c1.229,-7.729 7.521,-13.133 15.292,-13.133c3.875,-0 7.025,1.287 9.1,3.716c2.079,2.455 2.904,5.88 2.308,9.655Z" style="fill:#253b80;fill-rule:nonzero;"/><path d="M350.4,54.479l-13.713,0c-1.308,0 -2.537,0.65 -3.279,1.738l-18.912,27.858l-8.017,-26.771c-0.504,-1.675 -2.05,-2.825 -3.8,-2.825l-13.475,0c-1.637,0 -2.775,1.6 -2.254,3.142l15.104,44.325l-14.2,20.046c-1.117,1.579 0.008,3.75 1.938,3.75l13.695,-0c1.3,-0 2.517,-0.634 3.255,-1.7l45.608,-65.834c1.092,-1.575 -0.029,-3.729 -1.95,-3.729Z" style="fill:#253b80;fill-rule:nonzero;"/><path d="M395.8,28.121l-28.5,-0c-1.946,-0 -3.604,1.416 -3.908,3.342l-11.525,73.07c-0.23,1.442 0.887,2.742 2.341,2.742l14.625,0c1.359,0 2.521,-0.992 2.734,-2.342l3.27,-20.712c0.3,-1.929 1.963,-3.346 3.909,-3.346l9.016,-0c18.775,-0 29.605,-9.083 32.438,-27.083c1.279,-7.875 0.05,-14.063 -3.638,-18.396c-4.045,-4.759 -11.225,-7.275 -20.762,-7.275Zm3.287,26.687c-1.554,10.225 -9.366,10.225 -16.925,10.225l-4.295,0l3.02,-19.096c0.18,-1.154 1.171,-2.004 2.342,-2.004l1.971,0c5.142,0 10,0 12.508,2.934c1.496,1.75 1.95,4.35 1.379,7.941Z" style="fill:#179bd7;fill-rule:nonzero;"/><path d="M480.975,54.479l-13.638,0c-1.17,0 -2.166,0.85 -2.341,2.004l-0.604,3.817l-0.959,-1.383c-2.954,-4.288 -9.537,-5.721 -16.112,-5.721c-15.079,-0 -27.954,11.421 -30.463,27.442c-1.3,7.991 0.546,15.633 5.079,20.962c4.167,4.9 10.109,6.942 17.188,6.942c12.15,-0 18.887,-7.813 18.887,-7.813l-0.608,3.792c-0.229,1.45 0.888,2.75 2.35,2.75l12.288,-0c1.945,-0 3.604,-1.417 3.908,-3.346l7.379,-46.704c0.225,-1.438 -0.892,-2.742 -2.354,-2.742Zm-19.021,26.559c-1.308,7.795 -7.504,13.029 -15.396,13.029c-3.954,-0 -7.129,-1.271 -9.162,-3.679c-2.017,-2.392 -2.775,-5.796 -2.142,-9.588c1.238,-7.729 7.521,-13.133 15.292,-13.133c3.875,-0 7.025,1.287 9.1,3.716c2.087,2.455 2.912,5.88 2.308,9.655Z" style="fill:#179bd7;fill-rule:nonzero;"/><path d="M497.062,30.125l-11.695,74.408c-0.23,1.442 0.887,2.742 2.341,2.742l11.759,0c1.954,0 3.612,-1.417 3.912,-3.346l11.533,-73.067c0.23,-1.441 -0.887,-2.745 -2.341,-2.745l-13.167,-0c-1.162,0.004 -2.162,0.854 -2.342,2.008Z" style="fill:#179bd7;fill-rule:nonzero;"/><path d="M30.275,121.475l2.179,-13.842l-4.854,-0.112l-23.179,-0l16.108,-102.138c0.05,-0.308 0.213,-0.596 0.45,-0.8c0.238,-0.204 0.542,-0.316 0.858,-0.316l39.084,-0c12.975,-0 21.929,2.7 26.604,8.029c2.192,2.5 3.587,5.112 4.262,7.987c0.709,3.017 0.721,6.621 0.03,11.017l-0.05,0.321l-0,2.816l2.191,1.242c1.846,0.979 3.313,2.1 4.438,3.383c1.875,2.138 3.087,4.855 3.6,8.075c0.529,3.313 0.354,7.255 -0.513,11.717c-1,5.133 -2.616,9.604 -4.8,13.263c-2.008,3.37 -4.566,6.166 -7.604,8.333c-2.9,2.058 -6.346,3.621 -10.242,4.621c-3.775,0.983 -8.079,1.479 -12.8,1.479l-3.041,0c-2.175,0 -4.288,0.783 -5.946,2.188c-1.663,1.433 -2.763,3.391 -3.1,5.533l-0.229,1.246l-3.85,24.395l-0.175,0.896c-0.046,0.284 -0.125,0.425 -0.242,0.521c-0.104,0.088 -0.254,0.146 -0.4,0.146l-18.779,0Z" style="fill:#253b80;fill-rule:nonzero;"/><path d="M96.033,31.946c-0.116,0.746 -0.25,1.508 -0.4,2.292c-5.154,26.462 -22.787,35.604 -45.308,35.604l-11.467,-0c-2.754,-0 -5.075,2 -5.504,4.716l-5.871,37.234l-1.662,10.554c-0.279,1.783 1.096,3.392 2.896,3.392l20.337,-0c2.408,-0 4.454,-1.751 4.833,-4.125l0.2,-1.034l3.83,-24.3l0.245,-1.333c0.375,-2.383 2.425,-4.133 4.834,-4.133l3.041,-0.001c19.705,0.001 35.13,-7.999 39.638,-31.149c1.883,-9.671 0.908,-17.746 -4.075,-23.426c-1.508,-1.712 -3.379,-3.133 -5.567,-4.291Z" style="fill:#179bd7;fill-rule:nonzero;"/><path d="M90.642,29.796c-0.788,-0.229 -1.6,-0.438 -2.434,-0.625c-0.837,-0.183 -1.696,-0.346 -2.579,-0.488c-3.092,-0.5 -6.479,-0.737 -10.108,-0.737l-30.634,-0c-0.754,-0 -1.47,0.171 -2.112,0.479c-1.413,0.679 -2.463,2.017 -2.717,3.654l-6.516,41.275l-0.188,1.204c0.429,-2.716 2.75,-4.716 5.504,-4.716l11.467,-0c22.521,-0 40.154,-9.146 45.308,-35.604c0.154,-0.784 0.284,-1.546 0.4,-2.292c-1.304,-0.692 -2.716,-1.283 -4.237,-1.788c-0.375,-0.125 -0.763,-0.245 -1.154,-0.362Z" style="fill:#222d65;fill-rule:nonzero;"/><path d="M40.058,32.079c0.254,-1.637 1.304,-2.975 2.717,-3.65c0.646,-0.308 1.358,-0.479 2.112,-0.479l30.634,-0c3.629,-0 7.016,0.237 10.108,0.737c0.883,0.142 1.742,0.305 2.579,0.488c0.834,0.187 1.646,0.396 2.434,0.625c0.391,0.117 0.779,0.238 1.158,0.358c1.521,0.505 2.933,1.1 4.237,1.788c1.534,-9.779 -0.012,-16.438 -5.3,-22.467c-5.829,-6.637 -16.35,-9.479 -29.812,-9.479l-39.083,-0c-2.75,-0 -5.096,2 -5.521,4.721l-16.279,103.187c-0.321,2.042 1.254,3.884 3.312,3.884l24.129,-0l6.059,-38.438l6.516,-41.275Z" style="fill:#253b80;fill-rule:nonzero;"/></g></svg>