<svg width="100%" height="100%" viewBox="0 0 10417 1992" version="1.1" xmlns="http://www.w3.org/2000/svg" xmlns:xlink="http://www.w3.org/1999/xlink" xml:space="preserve" xmlns:serif="http://www.serif.com/" style="fill-rule:evenodd;clip-rule:evenodd;stroke-linejoin:round;stroke-miterlimit:2;"><g><path d="M2563.16,1916.63l391.355,-1841.59l-2563.1,0l-391.413,1841.59l2563.16,-0Z" style="fill:#fff;fill-rule:nonzero;"/><path d="M2870.15,142.845l-2424.22,0.115l-1.437,8.052c-0,-0 1425.15,292.726 1453.39,297.671c327.461,57.798 317.282,121.001 317.282,121.001c229.465,-1.15 257.645,8.109 297.787,41.58c120.656,100.758 -75.453,397.739 -75.453,397.739c-28.065,20.704 -2148.11,839.416 -2148.11,839.416l2218.05,-0l362.658,-1705.52l0.057,-0.058Zm464.796,0l-92.074,433.453c-33.01,149.756 67.977,217.56 236.194,217.56c168.849,0 297.211,-67.861 329.36,-217.56c93.626,-433.453 -1.036,0 93.626,-433.453l-141.187,0c-0,0 -71.313,333.443 -83.677,390.551c-21.279,100.009 -74.016,159.705 -177.476,159.705c-108.004,-0.863 -130.203,-60.673 -108.061,-159.705c-2.473,10.006 84.022,-390.551 84.022,-390.551l-140.727,0Zm702.369,0l-135.723,639.454l125.084,-0l98.687,-474.573l2.876,0l157.864,474.573l177.476,-0l135.494,-639.454l-124.797,0l-100.757,479.864l-1.726,-0l-151.711,-479.864l-182.767,0Zm697.079,0l-135.321,639.454l140.842,-0l135.551,-639.454l-141.072,0Zm235.56,0l-22.371,101.793l198.985,0l-114.273,537.718l140.957,0l114.158,-537.718l198.812,0l21.451,-101.793l-537.719,0Zm632.38,0l-136.471,639.454l463.415,-0l21.567,-101.793l-321.769,0l36.577,-174.773l280.821,0l20.358,-94.431l-280.706,-0l35.484,-166.721l322.171,-0l21.221,-101.793l-462.725,-0l0.057,0.057Zm565.438,0l-135.378,639.454l288.815,-0c178.396,-0 349.66,-117.666 388.077,-347.763c27.432,-163.156 -37.669,-291.691 -231.19,-291.691l-310.324,0Zm1060.02,0c-165.686,0 -248.098,58.833 -260.348,150.849c-20.531,153.207 250.571,244.245 230.155,335.973c-12.652,53.6 -78.501,50.897 -131.985,50.897l-173.795,-0l-21.566,101.735l215.892,-0c176.613,-0 253.274,-63.376 267.421,-150.849c25.765,-156.945 -249.593,-237.976 -228.084,-339.539c7.016,-31.285 41.695,-47.33 118.355,-47.33l150.734,-0l22.141,-101.736l-188.92,0Zm261.383,0l-22.141,101.793l198.812,0l-114.1,537.718l140.842,0l114.099,-537.718l198.985,0l21.394,-101.793l-537.891,0Zm687.187,0l-366.396,639.454l140.899,-0l280.879,-512.644l56.244,410.851l-201.745,0l-55.152,101.793l413.612,-0l-99.78,-639.569l-168.561,0l-0,0.115Zm324.126,0l-22.199,101.793l198.812,0l-114.157,537.718l140.899,0l114.1,-537.718l198.697,0l21.566,-101.793l-537.718,0Zm631.689,0l-136.586,639.454l463.703,-0l21.566,-101.793l-322.171,0l36.634,-174.773l280.937,0l20.416,-94.431l-280.764,-0l35.656,-166.721l321.826,-0l21.451,-101.793l-462.668,-0l0,0.057Zm772.704,0c-165.916,0 -247.925,58.833 -260.462,150.849c-20.474,153.207 250.571,244.245 230.155,335.973c-12.595,53.6 -78.616,50.897 -132.101,50.897l-173.852,-0l-21.337,101.735l215.663,-0c176.613,-0 253.389,-63.376 267.766,-150.849c25.65,-156.945 -249.766,-237.976 -228.487,-339.539c7.189,-31.285 42.04,-47.33 118.758,-47.33l150.389,-0l22.601,-101.736l-189.093,0Zm-3616.74,101.793l143.775,0c116.745,0 158.44,86.553 140.669,188.115c-24.902,143.603 -116.745,247.811 -276.22,247.811l-100.758,-0l92.534,-435.926Zm-4677.75,292.496c-64.238,-0.46 -109.499,0.46 -114.675,0.115l-1133.35,-0l-278.463,1311.57c0,0 852.93,-418.557 957.254,-472.157c213.764,-109.844 509.308,-254.884 782.423,-347.935c52.046,-17.598 275.012,-86.322 404.87,-109.499c50.321,-8.972 71.715,-17.54 71.082,-26.915c-1.955,-26.914 -52.564,-28.697 -138.254,-24.499c-261.498,12.307 -762.467,211.809 -906.702,287.895l-162.811,-504.592l1040.18,-0c35.081,-98.112 -328.784,-112.375 -521.615,-113.87l0.057,-0.115Zm551.521,121.576c-7.534,-0 -14.032,5.061 -22.774,16.965c-7.994,10.237 -14.493,17.196 -35.196,27.605c-32.091,15.815 -116.113,24.672 -155.45,27.95c-37.726,3.163 -47.963,7.016 -48.595,21.566c-0.403,13.055 5.578,20.474 59.752,20.474c124.567,-0 348.798,-46.986 416.373,-25.477c35.656,11.387 7.016,74.935 -22.257,158.497c-11.329,32.206 10.927,29.963 23.809,15.816c12.94,-14.263 71.083,-120.714 77.409,-174.888c8.971,-77.006 -57.05,-88.566 -148.146,-88.566l-144.925,0l-0,0.058Zm1843.02,538.581c-197.834,-0 -362.773,103.403 -411.081,330.797c-38.187,181.847 72.462,331.603 269.434,331.603c199.79,-0 360.243,-98.86 410.219,-331.603c40.889,-189.84 -72.405,-330.797 -268.572,-330.797Zm5644.37,-0c-196.224,-0 -385.087,101.562 -433.338,330.797c-48.941,229.12 96.272,331.603 292.611,331.603c54.29,-0 106.336,-6.154 157.923,-14.09l34.736,-109.959c-50.782,12.652 -104.496,22.486 -171.38,22.486c-127.557,0 -199.56,-85.575 -169.31,-230.04c30.308,-144.522 139.002,-229.235 266.387,-229.235c65.274,0 109.729,8.914 149.871,20.531l12.594,-107.831c-45.375,-7.994 -92.591,-14.262 -140.094,-14.262Zm-5031.2,11.502c-165.973,-0 -248.155,58.832 -260.52,150.791c-20.531,153.437 250.456,244.302 230.213,336.203c-12.537,53.485 -78.616,50.782 -132.101,50.782l-173.852,-0l-21.567,101.62l216.008,-0c176.555,-0 253.159,-63.261 267.421,-150.676c25.88,-156.888 -249.593,-238.092 -228.257,-339.712c7.131,-31.285 41.982,-47.273 118.873,-47.273l150.389,-0l22.429,-101.793l-189.036,0l0,0.058Zm261.268,-0l-22.199,101.735l198.812,-0l-114.157,537.718l140.9,0l114.329,-537.718l198.697,-0l21.222,-101.793l-537.604,0l0,0.058Zm2058.28,-0c-166.031,-0 -248.155,58.832 -260.52,150.791c-20.646,153.437 250.399,244.302 230.155,336.203c-12.537,53.485 -78.616,50.782 -132.1,50.782l-173.853,-0l-21.451,101.62l215.892,-0c176.441,-0 253.159,-63.261 267.422,-150.676c25.879,-156.888 -249.536,-238.092 -228.488,-339.712c7.189,-31.285 42.155,-47.273 118.874,-47.273l150.618,-0l22.199,-101.793l-188.805,0l0.057,0.058Zm310.842,-0l-136.471,639.396l463.817,-0l21.337,-101.62l-321.941,-0l36.634,-174.888l280.936,-0l20.416,-94.604l-280.764,-0l35.484,-166.549l322.056,-0l21.163,-101.793l-462.61,0l-0.057,0.058Zm565.15,-0l-135.608,639.396l140.899,-0l114.1,-538.581l126.579,-0c78.444,-0 85.46,43.592 77.524,83.792c-15.068,75.74 -81.089,106.048 -153.322,106.048c-13.4,0 -35.829,0.92 -53.599,-1.783l116.055,350.524l154.184,-0l-105.243,-275.646c93.684,-13.284 174.083,-80.111 182.767,-200.594c8.166,-107.026 -41.753,-163.214 -166.492,-163.214l-297.901,0l0.057,0.058Zm2089.57,-0l-136.184,639.396l463.703,-0l21.336,-101.62l-321.826,-0l36.519,-174.888l280.936,-0l20.416,-94.604l-280.763,-0l35.656,-166.549l321.826,-0l21.336,-101.793l-462.955,0l-0,0.058Zm-6794.23,0.057l-135.608,639.339l140.957,-0l114.157,-537.719l114.905,0c51.874,0 87.358,25.822 72.347,95.409c-7.936,38.302 -42.845,104.324 -139.174,104.324c-21.336,-0 -44.512,-2.703 -62.226,-4.486l7.074,92.878c20.416,1.841 44.57,5.176 66.942,5.176c126.579,0 238.034,-73.037 263.971,-194.383c16.85,-80.169 0.805,-200.538 -137.392,-200.538l-305.953,0Zm2458.55,0l-366.224,639.339l140.67,-0l281.108,-512.759l55.957,411.139l-201.399,-0l-55.21,101.62l413.497,-0l-99.608,-639.339l-168.791,0Zm477.447,0l-135.436,639.339l432.533,-0l22.256,-101.62l-291.575,-0l114.1,-537.719l-141.878,0Zm2307.88,0l96.214,639.339l166.606,-0l364.038,-639.339l-139.174,0l-280.821,512.874l-66.021,-512.874l-140.9,0l0.058,0Zm711.743,0l-135.436,639.339l140.9,-0l135.493,-639.339l-140.957,0Zm-5081.93,90.003c130.202,0 173.967,99.78 146.363,229.235c-30.538,144.523 -116.055,230.04 -243.498,230.04c-132.042,0 -175.75,-106.106 -148.145,-230.04c32.953,-144.465 117.895,-229.235 245.28,-229.235Z" style="fill:#15569c;fill-rule:nonzero;"/><path d="M3159.08,972.024l-9.949,47.446l7257.76,-0l9.777,-47.446l-7257.59,0Z" style="fill:#ed192d;fill-rule:nonzero;"/></g></svg>